<svg width="101" height="47" viewBox="0 0 101 47" fill="none" xmlns="http://www.w3.org/2000/svg">
<path d="M21.4399 10.6956C21.4449 7.33257 21.4499 3.96953 21.4548 0.606486C21.4551 0.413848 21.4548 0.221211 21.4548 0C32.2092 0 42.9017 0 53.6348 0C53.6348 10.7147 53.6348 21.4206 53.6348 32.2077C42.9383 32.2077 32.2474 32.2077 21.5089 32.159C21.4616 25.1529 21.4619 18.1957 21.461 11.2384C21.461 11.0575 21.4473 10.8765 21.4399 10.6956Z" fill="#E8FFCA"/>
<path d="M21.3955 10.6938C21.4474 10.8768 21.4611 11.0577 21.4611 11.2386C21.4621 18.1959 21.4617 25.1532 21.4632 32.1538C21.4648 32.1971 21.4601 32.2115 21.4085 32.2106C17.7366 32.2093 14.1163 32.2077 10.496 32.2095C9.88766 32.2098 9.27936 32.2251 8.67105 32.2334C5.98479 32.2255 3.29854 32.2175 0.61229 32.2096C0.418685 32.209 0.225076 32.2095 0 32.2095C0 25.023 0 17.8938 0 10.6917C7.12298 10.6917 14.237 10.6917 21.3955 10.6938Z" fill="#BFFC71"/>
<path d="M8.67212 32.2799C9.27951 32.2249 9.88781 32.2096 10.4961 32.2093C14.1164 32.2075 17.7367 32.2092 21.4021 32.2142C21.4472 36.4492 21.4472 40.6796 21.4472 44.9533C17.1982 44.9533 12.9782 44.9533 8.67304 44.9533C8.67304 40.7422 8.67304 36.5343 8.67212 32.2799Z" fill="#F1FFDF"/>
<path d="M50.755 37.5453C51.1267 37.5453 51.4522 37.5453 51.7971 37.5453C51.7971 40.4977 51.7971 43.3927 51.7971 46.3614C51.0147 46.3614 50.2472 46.3776 49.4817 46.3447C49.3618 46.3396 49.2159 46.1301 49.1419 45.9846C48.2383 44.2077 47.3464 42.4249 46.4497 40.6445C46.3738 40.4938 46.2849 40.3497 46.0973 40.2369C46.0973 42.2511 46.0973 44.2653 46.0973 46.3216C45.4489 46.3216 44.8497 46.3216 44.2148 46.3216C44.2148 43.4271 44.2148 40.5191 44.2148 37.548C44.9794 37.548 45.749 37.5318 46.5165 37.5649C46.6363 37.57 46.7814 37.7816 46.8557 37.9277C47.7667 39.7191 48.6663 41.5164 49.5703 43.3114C49.6406 43.451 49.7219 43.5851 49.8876 43.7022C49.8876 41.6757 49.8876 39.6491 49.8876 37.5453C50.1963 37.5453 50.4526 37.5453 50.755 37.5453Z" fill="white"/>
<path d="M88.0115 45.3418C87.138 43.6048 86.2812 41.9008 85.4243 40.1968C85.3839 40.2021 85.3435 40.2075 85.3031 40.2128C85.3031 42.245 85.3031 44.2771 85.3031 46.3358C84.634 46.3358 84.0485 46.3358 83.4233 46.3358C83.4233 43.4252 83.4233 40.5198 83.4233 37.5483C84.1819 37.5483 84.9501 37.5321 85.7162 37.565C85.836 37.5702 85.9813 37.7807 86.0554 37.9264C86.9517 39.6882 87.8364 41.4558 88.7255 43.2212C88.8097 43.3885 88.9035 43.5511 89.1061 43.6867C89.1061 41.6556 89.1061 39.6244 89.1061 37.5716C89.7687 37.5716 90.3722 37.5716 90.9956 37.5716C90.9956 40.4935 90.9956 43.3896 90.9956 46.3617C90.221 46.3617 89.4532 46.3748 88.687 46.3472C88.5747 46.3432 88.4455 46.1602 88.3662 46.0337C88.2354 45.8254 88.139 45.5956 88.0115 45.3418Z" fill="#BFFC71"/>
<path d="M98.3604 39.9792C97.745 40.573 97.1541 41.1418 96.5387 41.7344C98.0461 43.2953 99.4741 44.774 101 46.354C100.073 46.354 99.2637 46.3676 98.4561 46.3398C98.3295 46.3355 98.1972 46.154 98.0883 46.0354C97.1742 45.0404 96.2646 44.0412 95.3547 43.0424C95.2459 42.9231 95.1432 42.7983 94.9261 42.7082C94.9261 43.9071 94.9261 45.106 94.9261 46.3335C94.2352 46.3335 93.6194 46.3335 92.9758 46.3335C92.9758 43.422 92.9758 40.5255 92.9758 37.5873C93.5941 37.5873 94.2223 37.5873 94.9084 37.5873C94.9084 38.6927 94.9084 39.7842 94.9084 40.8757C94.961 40.9108 95.0137 40.946 95.0663 40.9811C95.1674 40.8411 95.2553 40.6888 95.3718 40.5629C96.1892 39.6804 97.0236 38.8133 97.8274 37.9186C98.083 37.6342 98.3487 37.5217 98.726 37.5382C99.3606 37.5659 99.9974 37.5458 100.633 37.5458C100.661 37.5937 100.688 37.6417 100.715 37.6896C99.9383 38.4445 99.1616 39.1995 98.3604 39.9792Z" fill="#BFFC71"/>
<path d="M66.8733 41.1223C67.6788 41.1223 68.4348 41.1223 69.2291 41.1223C69.2291 41.6202 69.2291 42.0839 69.2291 42.5948C67.8351 42.5948 66.4578 42.5948 65.0529 42.5948C65.0529 43.3719 65.0529 44.1028 65.0529 44.8752C66.5878 44.8752 68.0983 44.8752 69.6486 44.8752C69.6486 45.3803 69.6486 45.8451 69.6486 46.3372C67.4725 46.3372 65.3069 46.3372 63.116 46.3372C63.116 43.4124 63.116 40.5047 63.116 37.5713C65.2545 37.5713 67.3724 37.5713 69.5213 37.5713C69.5213 38.0408 69.5213 38.4939 69.5213 39.0048C68.0472 39.0048 66.5746 39.0048 65.0634 39.0048C65.0634 39.7241 65.0634 40.3869 65.0634 41.1223C65.6517 41.1223 66.2378 41.1223 66.8733 41.1223Z" fill="white"/>
<path d="M38.9741 37.5449C40.0596 37.5449 41.0955 37.5449 42.1647 37.5449C42.1647 38.0368 42.1647 38.4894 42.1647 39.0038C40.6957 39.0038 39.2225 39.0038 37.7148 39.0038C37.7148 39.7294 37.7148 40.3947 37.7148 41.1125C39.1017 41.1125 40.4785 41.1125 41.8865 41.1125C41.8865 41.6164 41.8865 42.0686 41.8865 42.5748C40.5034 42.5748 39.1272 42.5748 37.7155 42.5748C37.7155 43.3577 37.7155 44.0881 37.7155 44.8818C39.2463 44.8818 40.7687 44.8818 42.3163 44.8818C42.3163 45.3971 42.3163 45.8499 42.3163 46.3337C40.1281 46.3337 37.961 46.3337 35.759 46.3337C35.759 43.4136 35.759 40.5061 35.759 37.5449C36.821 37.5449 37.8728 37.5449 38.9741 37.5449Z" fill="white"/>
<path d="M55.5798 41.6327C55.5854 42.1599 55.5722 42.6389 55.6002 43.1155C55.6701 44.3027 56.3301 44.9701 57.4134 44.9752C58.5173 44.9803 59.221 44.3022 59.2508 43.0924C59.291 41.4614 59.2661 39.8288 59.2691 38.1968C59.2694 38.0005 59.2691 37.8041 59.2691 37.5764C59.9203 37.5764 60.539 37.5764 61.1531 37.5764C61.1758 37.6128 61.2067 37.6393 61.2065 37.6655C61.1948 39.5434 61.2654 41.4267 61.1434 43.2974C61.014 45.2819 59.8128 46.3552 57.8324 46.4723C57.3748 46.4993 56.9037 46.4955 56.4537 46.4184C54.8934 46.1512 53.841 45.1443 53.7403 43.5197C53.6184 41.5535 53.7114 39.574 53.7114 37.5724C54.2873 37.5724 54.9065 37.5724 55.5798 37.5724C55.5798 38.9229 55.5798 40.2531 55.5798 41.6327Z" fill="white"/>
<path d="M29.777 43.9913C29.8273 44.1002 29.8668 44.1699 29.9463 44.3103C30.0336 44.0664 30.1026 43.8859 30.1632 43.7026C30.7937 41.7939 31.4302 39.8871 32.0453 37.9734C32.1465 37.6582 32.2728 37.5107 32.6265 37.5366C33.0957 37.571 33.5693 37.5451 34.1119 37.5451C33.7773 38.4835 33.4707 39.3469 33.1617 40.2095C32.4734 42.1317 31.7757 44.0506 31.1031 45.9782C30.9962 46.2845 30.8513 46.3875 30.5381 46.3704C30.0781 46.3454 29.6133 46.3904 29.1556 46.3497C28.992 46.3352 28.7518 46.1916 28.7004 46.0507C27.6895 43.2803 26.7011 40.5017 25.7093 37.7243C25.699 37.6954 25.7039 37.661 25.696 37.5473C26.2998 37.5473 26.901 37.5281 27.4987 37.5653C27.6043 37.5719 27.7368 37.8001 27.7866 37.9494C28.4537 39.9479 29.1084 41.9505 29.777 43.9913Z" fill="white"/>
<path d="M71.5059 40.1491C71.5059 39.2631 71.5059 38.4266 71.5059 37.5685C72.1583 37.5685 72.763 37.5685 73.4221 37.5685C73.4221 39.9872 73.4221 42.3976 73.4221 44.8651C74.8465 44.8651 76.2189 44.8651 77.6295 44.8651C77.6295 45.3852 77.6295 45.8483 77.6295 46.3363C75.5913 46.3363 73.5754 46.3363 71.5059 46.3363C71.5059 44.2725 71.5059 42.2355 71.5059 40.1491Z" fill="#BFFC71"/>
<path d="M79.5271 46.2997C79.5015 43.3821 79.5015 40.5009 79.5015 37.582C80.1223 37.582 80.7401 37.582 81.3958 37.582C81.3958 40.4773 81.3958 43.3826 81.3958 46.3361C80.7845 46.3361 80.1687 46.3361 79.5271 46.2997Z" fill="#BFFC71"/>
</svg>
